<svg xmlns="http://www.w3.org/2000/svg" width="14" height="12" viewBox="0 0 11 10">
    <g fill="none" fill-rule="evenodd">
        <path d="M-1-1h12v12H-1z"/>
        <g fill="#ffffff" fill-rule="nonzero">
            <path d="M4.625 1.25H.875C.65 1.25.5 1.4.5 1.625v.75c0 .225.15.375.375.375h3.75C4.85 2.75 5 2.6 5 2.375v-.75c0-.225-.15-.375-.375-.375zM4.625 4.25H.875C.65 4.25.5 4.4.5 4.625v.75c0 .225.15.375.375.375h3.75C4.85 5.75 5 5.6 5 5.375v-.75c0-.225-.15-.375-.375-.375zM4.625 7.25H.875C.65 7.25.5 7.4.5 7.625v.75c0 .225.15.375.375.375h3.75C4.85 8.75 5 8.6 5 8.375v-.75c0-.225-.15-.375-.375-.375zM10.137 4.138l-.524.524a.405.405 0 0 1-.263.113.34.34 0 0 1-.262-.113l-.75-.75C8.225 3.8 8 3.876 8 4.063v5.063a.403.403 0 0 1-.375.375h-.75a.403.403 0 0 1-.375-.375V.875a.34.34 0 0 1 .112-.263A.405.405 0 0 1 6.875.5a.34.34 0 0 1 .263.113l3 3a.34.34 0 0 1 .112.262.34.34 0 0 1-.113.263z"/>
        </g>
    </g>
</svg>
